<svg version="1.1" xmlns="http://www.w3.org/2000/svg" xmlns:xlink="http://www.w3.org/1999/xlink" width="24" height="24" viewBox="0 0 15 14">
<path d="M4.82 10.93l-0.391 0.391q-0.078 0.078-0.18 0.078t-0.18-0.078l-3.641-3.641q-0.078-0.078-0.078-0.18t0.078-0.18l3.641-3.641q0.078-0.078 0.18-0.078t0.18 0.078l0.391 0.391q0.078 0.078 0.078 0.18t-0.078 0.18l-3.070 3.070 3.070 3.070q0.078 0.078 0.078 0.18t-0.078 0.18zM9.438 2.594l-2.914 10.086q-0.031 0.102-0.121 0.152t-0.184 0.020l-0.484-0.133q-0.102-0.031-0.152-0.121t-0.020-0.191l2.914-10.086q0.031-0.102 0.121-0.152t0.184-0.020l0.484 0.133q0.102 0.031 0.152 0.121t0.020 0.191zM14.57 7.68l-3.641 3.641q-0.078 0.078-0.18 0.078t-0.18-0.078l-0.391-0.391q-0.078-0.078-0.078-0.18t0.078-0.18l3.070-3.070-3.070-3.070q-0.078-0.078-0.078-0.18t0.078-0.18l0.391-0.391q0.078-0.078 0.18-0.078t0.18 0.078l3.641 3.641q0.078 0.078 0.078 0.18t-0.078 0.18z"></path>
</svg>