<?xml version="1.0" encoding="UTF-8" standalone="no"?>
<svg width="490px" height="55px" viewBox="0 0 490 55" version="1.1" xmlns="http://www.w3.org/2000/svg" xmlns:xlink="http://www.w3.org/1999/xlink" xmlns:sketch="http://www.bohemiancoding.com/sketch/ns">
    <!-- Generator: Sketch 3.1.1 (8761) - http://www.bohemiancoding.com/sketch -->
    <title>DILLINGER</title>
    <desc>Created with Sketch.</desc>
    <defs></defs>
    <g id="Page-1" stroke="none" stroke-width="1" fill="none" fill-rule="evenodd" sketch:type="MSPage">
        <g id="Desktop---Splashscreen" sketch:type="MSArtboardGroup" transform="translate(-266.000000, -331.000000)" fill="#FFFFFF">
            <g id="DILLINGER-+-Initalizing-the-awes" sketch:type="MSLayerGroup" transform="translate(266.000000, 293.000000)">
                <path d="M0.102882195,91.8823895 L19.7766069,91.8823895 C36.3598232,91.8823895 47.8173181,80.3495164 47.8173181,65.5 L47.8173181,65.3492435 C47.8173181,50.4997271 36.3598232,39.1176105 19.7766069,39.1176105 L0.102882195,39.1176105 L0.102882195,91.8823895 Z M9.37440765,83.4400249 L9.37440765,47.5599751 L19.7766069,47.5599751 C30.8572105,47.5599751 38.0935231,55.173179 38.0935231,65.5 L38.0935231,65.6507565 C38.0935231,75.9775775 30.8572105,83.4400249 19.7766069,83.4400249 L9.37440765,83.4400249 Z M68.9696176,91.8823895 L78.241143,91.8823895 L78.241143,39.1176105 L68.9696176,39.1176105 L68.9696176,91.8823895 Z M101.730169,91.8823895 L138.740892,91.8823895 L138.740892,83.4400249 L111.001694,83.4400249 L111.001694,39.1176105 L101.730169,39.1176105 L101.730169,91.8823895 Z M157.7826,91.8823895 L194.793324,91.8823895 L194.793324,83.4400249 L167.054126,83.4400249 L167.054126,39.1176105 L157.7826,39.1176105 L157.7826,91.8823895 Z M214.36268,91.8823895 L223.634206,91.8823895 L223.634206,39.1176105 L214.36268,39.1176105 L214.36268,91.8823895 Z M247.123231,91.8823895 L256.244,91.8823895 L256.244,54.3440182 L285.340007,91.8823895 L293.103967,91.8823895 L293.103967,39.1176105 L283.983198,39.1176105 L283.983198,75.6006863 L255.716352,39.1176105 L247.123231,39.1176105 L247.123231,91.8823895 Z M341.090926,92.7869286 C350.437829,92.7869286 357.900277,89.0180158 363.101376,84.5706987 L363.101376,62.4094915 L340.638656,62.4094915 L340.638656,70.4749649 L354.131364,70.4749649 L354.131364,80.3495164 C350.890099,82.7616206 346.367404,84.3445639 341.392439,84.3445639 C330.613348,84.3445639 323.452414,76.3544688 323.452414,65.5 L323.452414,65.3492435 C323.452414,55.2485572 330.839483,46.7308143 340.563278,46.7308143 C347.271943,46.7308143 351.26699,48.9167837 355.337416,52.3841835 L361.21692,45.3740057 C355.789685,40.7759321 350.136316,38.2130714 340.940169,38.2130714 C325.035357,38.2130714 313.728619,50.7258619 313.728619,65.5 L313.728619,65.6507565 C313.728619,81.0279207 324.583088,92.7869286 341.090926,92.7869286 Z M384.555189,91.8823895 L424.053395,91.8823895 L424.053395,83.5907814 L393.826714,83.5907814 L393.826714,69.4196693 L420.284482,69.4196693 L420.284482,61.1280612 L393.826714,61.1280612 L393.826714,47.4092186 L423.676504,47.4092186 L423.676504,39.1176105 L384.555189,39.1176105 L384.555189,91.8823895 Z M444.451912,91.8823895 L453.723437,91.8823895 L453.723437,73.4900951 L465.331689,73.4900951 L478.296749,91.8823895 L489.226596,91.8823895 L474.980105,71.9071517 C482.367174,69.7965606 487.568274,64.5954609 487.568274,55.9269615 L487.568274,55.776205 C487.568274,51.1781314 485.985331,47.2584621 483.196335,44.3940884 C479.804314,41.0774452 474.603214,39.1176105 467.969928,39.1176105 L444.451912,39.1176105 L444.451912,91.8823895 Z M453.723437,65.2738652 L453.723437,47.5599751 L467.216145,47.5599751 C474.075566,47.5599751 478.145992,50.6504836 478.145992,56.3038528 L478.145992,56.4546093 C478.145992,61.8064655 473.92481,65.2738652 467.291523,65.2738652 L453.723437,65.2738652 Z" id="DILLINGER" sketch:type="MSShapeGroup"></path>
            </g>
        </g>
    </g>
</svg>