<?xml version="1.0" encoding="UTF-8" standalone="no"?>
<svg width="85px" height="11px" viewBox="0 0 85 11" version="1.1" xmlns="http://www.w3.org/2000/svg" xmlns:xlink="http://www.w3.org/1999/xlink" xmlns:sketch="http://www.bohemiancoding.com/sketch/ns">
    <!-- Generator: Sketch 3.1 (8751) - http://www.bohemiancoding.com/sketch -->
    <title>DILLINGER 2</title>
    <desc>Created with Sketch.</desc>
    <defs></defs>
    <g id="Page-1" stroke="none" stroke-width="1" fill="none" fill-rule="evenodd" sketch:type="MSPage">
        <g id="Desktop---Save-to" sketch:type="MSArtboardGroup" transform="translate(-92.000000, -58.000000)" fill="#FFFFFF">
            <g id="Navigation" sketch:type="MSLayerGroup" transform="translate(0.000000, 38.000000)">
                <g id="Menu-Item:-Branding" transform="translate(91.000000, 17.000000)" sketch:type="MSShapeGroup">
                    <path d="M1.17,13 L4.563,13 C7.423,13 9.399,11.011 9.399,8.45 L9.399,8.424 C9.399,5.863 7.423,3.9 4.563,3.9 L1.17,3.9 L1.17,13 Z M2.769,11.544 L2.769,5.356 L4.563,5.356 C6.474,5.356 7.722,6.669 7.722,8.45 L7.722,8.476 C7.722,10.257 6.474,11.544 4.563,11.544 L2.769,11.544 Z M13.047,13 L14.646,13 L14.646,3.9 L13.047,3.9 L13.047,13 Z M18.697,13 L25.08,13 L25.08,11.544 L20.296,11.544 L20.296,3.9 L18.697,3.9 L18.697,13 Z M28.364,13 L34.747,13 L34.747,11.544 L29.963,11.544 L29.963,3.9 L28.364,3.9 L28.364,13 Z M38.122,13 L39.721,13 L39.721,3.9 L38.122,3.9 L38.122,13 Z M43.772,13 L45.345,13 L45.345,6.526 L50.363,13 L51.702,13 L51.702,3.9 L50.129,3.9 L50.129,10.192 L45.254,3.9 L43.772,3.9 L43.772,13 Z M59.978,13.156 C61.59,13.156 62.877,12.506 63.774,11.739 L63.774,7.917 L59.9,7.917 L59.9,9.308 L62.227,9.308 L62.227,11.011 C61.668,11.427 60.888,11.7 60.03,11.7 C58.171,11.7 56.936,10.322 56.936,8.45 L56.936,8.424 C56.936,6.682 58.21,5.213 59.887,5.213 C61.044,5.213 61.733,5.59 62.435,6.188 L63.449,4.979 C62.513,4.186 61.538,3.744 59.952,3.744 C57.209,3.744 55.259,5.902 55.259,8.45 L55.259,8.476 C55.259,11.128 57.131,13.156 59.978,13.156 Z M67.474,13 L74.286,13 L74.286,11.57 L69.073,11.57 L69.073,9.126 L73.636,9.126 L73.636,7.696 L69.073,7.696 L69.073,5.33 L74.221,5.33 L74.221,3.9 L67.474,3.9 L67.474,13 Z M77.804,13 L79.403,13 L79.403,9.828 L81.405,9.828 L83.641,13 L85.526,13 L83.069,9.555 C84.343,9.191 85.24,8.294 85.24,6.799 L85.24,6.773 C85.24,5.98 84.967,5.304 84.486,4.81 C83.901,4.238 83.004,3.9 81.86,3.9 L77.804,3.9 L77.804,13 Z M79.403,8.411 L79.403,5.356 L81.73,5.356 C82.913,5.356 83.615,5.889 83.615,6.864 L83.615,6.89 C83.615,7.813 82.887,8.411 81.743,8.411 L79.403,8.411 Z" id="DILLINGER-2"></path>
                </g>
            </g>
        </g>
    </g>
</svg>