<?xml version="1.0" encoding="UTF-8" standalone="no"?>
<svg width="32px" height="32px" viewBox="0 0 32 32" version="1.1" xmlns="http://www.w3.org/2000/svg" xmlns:xlink="http://www.w3.org/1999/xlink" xmlns:sketch="http://www.bohemiancoding.com/sketch/ns">
    <!-- Generator: Sketch 3.1.1 (8761) - http://www.bohemiancoding.com/sketch -->
    <title>Zen Mode</title>
    <desc>Created with Sketch.</desc>
    <defs></defs>
    <g id="Page-1" stroke="none" stroke-width="1" fill="none" fill-rule="evenodd" sketch:type="MSPage">
        <g id="Desktop---Import-from" sketch:type="MSArtboardGroup" transform="translate(-455.000000, -169.000000)">
            <g id="Zen-Mode" sketch:type="MSLayerGroup" transform="translate(455.000000, 169.000000)">
                <rect id="Rectangle-866" fill="#D3DAEA" sketch:type="MSShapeGroup" x="0" y="0" width="32" height="32" rx="3"></rect>
                <g id="Icon:-Zen" transform="translate(8.000000, 8.000000)" fill="#A0AABF" sketch:type="MSShapeGroup">
                    <path d="M6.58273016,8.23784127 C6.51377778,8.16888889 6.4344127,8.13447619 6.3447619,8.13447619 C6.25511111,8.13447619 6.17574603,8.16888889 6.10679365,8.23784127 L2.672,11.6726349 L1.18222222,10.1827302 C1.0511746,10.0519365 0.896126984,9.98628571 0.716698413,9.98628571 C0.537269841,9.98628571 0.382095238,10.0519365 0.251047619,10.1827302 C0.12,10.3139048 0.0544761905,10.4692063 0.0544761905,10.6485079 L0.0544761905,15.2834286 C0.0544761905,15.4627302 0.12,15.6179048 0.251047619,15.7489524 C0.382222222,15.879873 0.537396825,15.9455238 0.716698413,15.9455238 L5.35161905,15.9455238 C5.53092063,15.9455238 5.68609524,15.879873 5.81714286,15.7489524 C5.94819048,15.6179048 6.01371429,15.4627302 6.01371429,15.2834286 C6.01371429,15.104127 5.94819048,14.9488254 5.81714286,14.8176508 L4.32736508,13.328127 L7.76215873,9.89320635 C7.83111111,9.82425397 7.86552381,9.74501587 7.86552381,9.6552381 C7.86552381,9.5655873 7.83098413,9.48634921 7.76215873,9.41726984 L6.58273016,8.23784127 L6.58273016,8.23784127 Z" id="Shape"></path>
                    <path d="M15.7489524,0.251174603 C15.6180317,0.120126984 15.4627302,0.0546031746 15.2834286,0.0546031746 L10.6485079,0.0546031746 C10.4692063,0.0546031746 10.3141587,0.120126984 10.1829841,0.251174603 C10.0520635,0.382222222 9.98653968,0.537396825 9.98653968,0.716698413 C9.98653968,0.896 10.0520635,1.05130159 10.1829841,1.18222222 L11.6726349,2.672 L8.23784127,6.10679365 C8.16888889,6.17587302 8.13434921,6.25511111 8.13434921,6.3447619 C8.13434921,6.4344127 8.16888889,6.51377778 8.23784127,6.58273016 L9.41726984,7.76215873 C9.48622222,7.83111111 9.56546032,7.86552381 9.6552381,7.86552381 C9.74488889,7.86552381 9.82412698,7.83111111 9.89307937,7.76215873 L13.328,4.32736508 L14.8175238,5.81701587 C14.9486984,5.94806349 15.104,6.01371429 15.2833016,6.01371429 C15.4626032,6.01371429 15.6177778,5.94806349 15.7488254,5.81701587 C15.879746,5.68609524 15.9452698,5.53079365 15.9452698,5.35149206 L15.9452698,0.716571429 C15.9453968,0.537142857 15.880254,0.382222222 15.7489524,0.251174603 L15.7489524,0.251174603 Z" id="Shape"></path>
                </g>
            </g>
        </g>
    </g>
</svg>