<?xml version="1.0" encoding="UTF-8" standalone="no"?>
<svg width="16px" height="16px" viewBox="0 0 16 16" version="1.1" xmlns="http://www.w3.org/2000/svg" xmlns:xlink="http://www.w3.org/1999/xlink" xmlns:sketch="http://www.bohemiancoding.com/sketch/ns">
    <!-- Generator: Sketch 3.1 (8751) - http://www.bohemiancoding.com/sketch -->
    <title>Icon: Zen Back</title>
    <desc>Created with Sketch.</desc>
    <defs></defs>
    <g id="Page-1" stroke="none" stroke-width="1" fill="none" fill-rule="evenodd" sketch:type="MSPage">
        <g id="Desktop---Zen-Mode" sketch:type="MSArtboardGroup" transform="translate(-984.000000, -61.000000)" fill="#A0AABF">
            <g id="Zen-Mode" sketch:type="MSLayerGroup" transform="translate(976.000000, 53.000000)">
                <g id="Icon:-Zen-Back" transform="translate(8.000000, 8.000000)" sketch:type="MSShapeGroup">
                    <path d="M15.9372903,1.60825806 C15.9372903,1.51716129 15.9021935,1.43664516 15.832,1.36645161 L14.6335484,0.168 C14.5634839,0.0978064516 14.4829677,0.0628387097 14.391871,0.0628387097 C14.3006452,0.0628387097 14.220129,0.0979354839 14.1500645,0.168 L10.6596129,3.65819355 L9.14606452,2.1443871 C9.01303226,2.01122581 8.85509677,1.94464516 8.67290323,1.94464516 C8.49070968,1.94464516 8.33303226,2.01122581 8.19987097,2.1443871 C8.06670968,2.27754839 8.00012903,2.43522581 8.00012903,2.61741935 L8.00012903,7.32709677 C8.00012903,7.50941935 8.06670968,7.66709677 8.19987097,7.80025806 C8.33303226,7.93341935 8.49070968,8 8.67290323,8 L13.3825806,8 C13.5647742,8 13.7227097,7.93341935 13.8557419,7.80025806 C13.9889032,7.66709677 14.0556129,7.50941935 14.0556129,7.32709677 C14.0556129,7.14490323 13.9889032,6.98722581 13.8557419,6.85406452 L12.3419355,5.34025806 L15.8323871,1.85006452 C15.9021935,1.78 15.9372903,1.69935484 15.9372903,1.60825806 L15.9372903,1.60825806 Z" id="Shape"></path>
                    <path d="M7.32722581,8.00012903 L2.61754839,8.00012903 C2.43535484,8.00012903 2.27767742,8.06670968 2.14451613,8.2 C2.01135484,8.33303226 1.94477419,8.49083871 1.94477419,8.67303226 C1.94477419,8.85522581 2.01135484,9.01290323 2.14451613,9.14606452 L3.65832258,10.6597419 L0.168129032,14.1500645 C0.0979354839,14.220129 0.0629677419,14.3007742 0.0629677419,14.3917419 C0.0629677419,14.4829677 0.0979354839,14.5636129 0.168129032,14.6336774 L1.36645161,15.831871 C1.43664516,15.9019355 1.51716129,15.9369032 1.60825806,15.9369032 C1.69935484,15.9369032 1.78,15.9019355 1.85006452,15.831871 L5.34025806,12.3416774 L6.85406452,13.8554839 C6.98722581,13.9885161 7.14490323,14.0552258 7.32709677,14.0552258 C7.50941935,14.0552258 7.66709677,13.9885161 7.80025806,13.8554839 C7.93341935,13.7224516 8,13.5646452 8,13.3824516 L8,8.67277419 C8,8.49058065 7.93341935,8.33277419 7.8003871,8.19987097 C7.66722581,8.06670968 7.50954839,8.00012903 7.32722581,8.00012903 L7.32722581,8.00012903 Z" id="Shape"></path>
                </g>
            </g>
        </g>
    </g>
</svg>