<?xml version="1.0" encoding="UTF-8" standalone="no"?>
<svg viewBox="0 0 14 16" version="1.1" xmlns="http://www.w3.org/2000/svg" xmlns:xlink="http://www.w3.org/1999/xlink" xmlns:sketch="http://www.bohemiancoding.com/sketch/ns">
    <!-- Generator: Sketch 3.1 (8751) - http://www.bohemiancoding.com/sketch -->
    <title>Icon: File</title>
    <desc>Created with Sketch.</desc>
    <defs></defs>
    <g id="Page-1" stroke="none" stroke-width="1" fill="none" fill-rule="evenodd" sketch:type="MSPage">
        <g id="Mobile---Home---Menu-Open-scrolled" sketch:type="MSArtboardGroup" transform="translate(-16.000000, -301.000000)" fill="#D3DAEA">
            <g id="Documents" sketch:type="MSLayerGroup" transform="translate(0.000000, 232.000000)">
                <g id="Readme" transform="translate(16.000000, 69.000000)" sketch:type="MSShapeGroup">
                    <g id="Icon:-File">
                        <path d="M13,0 L1,0 C0.44775,0 0,0.44728125 0,1 L0,15 C0,15.55275 0.44775,16 1,16 L10,16 L14,12 L14,1 C14,0.44728125 13.55275,0 13,0 L13,0 Z M10,14.5859375 L10,12 L12.5859375,12 L10,14.5859375 L10,14.5859375 Z M13,11 L10,11 C9.44725,11 9,11.4472812 9,12 L9,15 L1,15 L1,1 L13,1 L13,11 L13,11 Z M2,3.5 C2,3.223625 2.223625,3 2.5,3 L11.5,3 C11.776375,3 12,3.223625 12,3.5 C12,3.776375 11.776375,4 11.5,4 L2.5,4 C2.223625,4 2,3.776375 2,3.5 L2,3.5 Z M2,6.5 C2,6.223625 2.223625,6 2.5,6 L11.5,6 C11.776375,6 12,6.223625 12,6.5 C12,6.776375 11.776375,7 11.5,7 L2.5,7 C2.223625,7 2,6.776375 2,6.5 L2,6.5 Z M2,9.5 C2,9.223625 2.223625,9 2.5,9 L11.5,9 C11.776375,9 12,9.223625 12,9.5 C12,9.776375 11.776375,10 11.5,10 L2.5,10 C2.223625,10 2,9.776375 2,9.5 L2,9.5 Z" id="Shape"></path>
                    </g>
                </g>
            </g>
        </g>
    </g>
</svg>
