<?xml version="1.0" encoding="UTF-8" standalone="no"?>
<svg width="16px" height="16px" viewBox="0 0 16 16" version="1.1" xmlns="http://www.w3.org/2000/svg" xmlns:xlink="http://www.w3.org/1999/xlink" xmlns:sketch="http://www.bohemiancoding.com/sketch/ns">
    <!-- Generator: Sketch 3.1 (8751) - http://www.bohemiancoding.com/sketch -->
    <title>Icon: Megaphone</title>
    <desc>Created with Sketch.</desc>
    <defs></defs>
    <g id="Page-1" stroke="none" stroke-width="1" fill="none" fill-rule="evenodd" sketch:type="MSPage">
        <g id="Desktop---Auto-Save---Notification-Deactivated" sketch:type="MSArtboardGroup" transform="translate(-385.000000, -132.000000)" fill="#FFFFFF">
            <g id="Notification" sketch:type="MSLayerGroup" transform="translate(361.000000, 108.000000)">
                <g id="Saved" sketch:type="MSShapeGroup">
                    <g id="Icon:-Megaphone" transform="translate(24.000000, 24.000000)">
                        <path d="M14.7188837,5.35928889 C13.2457674,2.08444444 10.8755349,-0.409955556 9.67609302,0.0561777778 C7.63944186,0.847111111 10.8893023,4.64586667 0.888186047,8.53048889 C0.024372093,8.86595556 -0.194604651,10.2088889 0.166883721,11.0117333 C0.527627907,11.8144 1.70939535,12.6135111 2.5735814,12.2780444 C2.72297674,12.2200889 3.272,12.0513778 3.272,12.0513778 C3.88893023,12.8424889 4.53469767,12.3733333 4.76372093,12.8760889 C5.03888372,13.4801778 5.6375814,14.7934222 5.84074419,15.2401778 C6.04465116,15.6865778 6.50604651,16.1000889 6.84111628,15.9784889 C7.17506977,15.8568889 8.31274419,15.4432 8.74809302,15.2849778 C9.18306977,15.1267556 9.28688372,14.7562667 9.15404651,14.4638222 C9.01060465,14.1488 8.42251163,14.0563556 8.25506977,13.6887111 C8.08725581,13.3210667 7.53916279,12.1427556 7.3815814,11.7713778 C7.16725581,11.2663111 7.62251163,10.8554667 8.28390698,10.7896889 C12.835907,10.3363556 13.6868837,13.0227556 15.2366512,12.4204444 C16.435907,11.9543111 16.1916279,8.63431111 14.7188837,5.35928889 L14.7188837,5.35928889 Z M14.2061395,10.672 C13.9397209,10.7754667 12.1482791,9.42524444 11.0033488,6.87928889 C9.8587907,4.33386667 10.0026047,2.00675556 10.2686512,1.90346667 C10.5346977,1.8 12.2820465,3.4288 13.4267907,5.97422222 C14.5713488,8.51964444 14.4725581,10.5685333 14.2061395,10.672 L14.2061395,10.672 Z" id="Shape"></path>
                    </g>
                </g>
            </g>
        </g>
    </g>
</svg>