<?xml version="1.0" encoding="UTF-8" standalone="no"?>
<svg width="18px" height="18px" viewBox="0 0 18 18" version="1.1" xmlns="http://www.w3.org/2000/svg" xmlns:xlink="http://www.w3.org/1999/xlink" xmlns:sketch="http://www.bohemiancoding.com/sketch/ns">
    <!-- Generator: Sketch 3.1 (8751) - http://www.bohemiancoding.com/sketch -->
    <title>Icon: Settings</title>
    <desc>Created with Sketch.</desc>
    <defs></defs>
    <g id="Page-1" stroke="none" stroke-width="1" fill="none" fill-rule="evenodd" sketch:type="MSPage">
        <g id="Mobile---Home" sketch:type="MSArtboardGroup" transform="translate(-286.000000, -81.000000)" fill="#D3DBEB">
            <g id="Navigation" sketch:type="MSLayerGroup" transform="translate(0.000000, 65.000000)">
                <g id="Menu-Item:-Settings" transform="translate(269.000000, 0.000000)" sketch:type="MSShapeGroup">
                    <g id="Icon:-Settings" transform="translate(17.000000, 16.000000)">
                        <path d="M17.341654,7.68935491 L15.5585491,7.39189286 C15.4289531,6.86205804 15.2399933,6.35558705 14.9938996,5.88320759 L16.1353929,4.46787723 C16.3781719,4.16876786 16.3671429,3.73839509 16.1111853,3.44971205 L15.4020134,2.65156473 C15.1449509,2.36318304 14.7186763,2.30219196 14.3934911,2.507625 L12.8685937,3.46620536 C12.1978929,2.99760268 11.4381562,2.65156473 10.6185937,2.45077232 L10.3202679,0.658104911 C10.2576696,0.278517857 9.92918973,0 9.54359598,0 L8.47488616,0 C8.09007589,0 7.76049107,0.278517857 7.69925893,0.658104911 L7.39932589,2.45133482 C6.72173437,2.61723214 6.0864308,2.88502232 5.50665402,3.23770982 L4.05644866,2.20275 C3.74389955,1.97945759 3.31461161,2.01437277 3.04185937,2.28654241 L2.28684375,3.04210045 C2.01467411,3.31485268 1.97975893,3.74414062 2.20363393,4.05668973 L3.24100446,5.50966741 C2.8916317,6.08506473 2.62659375,6.71675223 2.46071652,7.38829687 L0.65784375,7.68935491 C0.278839286,7.75195312 -0.000220982143,8.08047321 -0.000220982143,8.46606696 L-0.000220982143,9.53393304 C-0.000220982143,9.91952679 0.278839286,10.2480469 0.65784375,10.3106451 L2.46071652,10.6117031 C2.59694196,11.1642991 2.79470089,11.6921853 3.05754911,12.1816205 L1.92125893,13.5889554 C1.67930357,13.8877835 1.68946875,14.3184375 1.94542634,14.6068594 L2.6540558,15.4050067 C2.91113839,15.6939308 3.33765402,15.753817 3.66285937,15.5489063 L5.20973437,14.5771875 C5.86426339,15.0248772 6.60473437,15.3539196 7.39932589,15.5489063 L7.69925893,17.341875 C7.76049107,17.7215022 8.09007589,18 8.47488616,18 L9.54359598,18 C9.92918973,18 10.2576696,17.7215022 10.3202679,17.3418951 L10.619096,15.5489263 C11.2882299,15.3852589 11.9154777,15.1221295 12.4900915,14.7754888 L14.0007254,15.8543839 C14.3127321,16.0785 14.7423214,16.0433437 15.0147924,15.7703103 L15.7700893,15.0150134 C16.0419576,14.7430848 16.0787812,14.3140379 15.8529978,14.0009464 L14.7774978,12.4930647 C15.1278951,11.9157388 15.3943192,11.2829263 15.5591518,10.6083683 L17.3422366,10.310625 C17.722346,10.2480268 18.0002812,9.9195067 18.0002812,9.53391295 L18.0002812,8.46604688 C17.9997388,8.08047321 17.7218036,7.75195312 17.341654,7.68935491 L17.341654,7.68935491 Z M9.0283058,12.375 C7.1647433,12.375 5.6533058,10.8632812 5.6533058,9 C5.6533058,7.1364375 7.1647433,5.625 9.0283058,5.625 C10.8915469,5.625 12.4032656,7.1364375 12.4032656,9 C12.4032656,10.8632812 10.8915469,12.375 9.0283058,12.375 L9.0283058,12.375 Z" id="settings_1_"></path>
                    </g>
                </g>
            </g>
        </g>
    </g>
</svg>